<svg width="1920" height="1080" viewBox="0 0 1920 1080" xmlns="http://www.w3.org/2000/svg"><rect width="1920" height="1080" fill="#9ea2c2"/><path d="M 0,1080 C 0,1080 0,135 0,135 C 94.39487179487179,126.59487179487179 188.78974358974358,118.18974358974359 302,133 C 415.2102564102564,147.81025641025641 547.2358974358974,185.83589743589744 649,179 C 750.7641025641026,172.16410256410256 822.2666666666667,120.46666666666667 920,104 C 1017.7333333333333,87.53333333333333 1141.697435897436,106.29743589743589 1273,124 C 1404.302564102564,141.7025641025641 1542.9435897435897,158.34358974358975 1652,160 C 1761.0564102564103,161.65641025641025 1840.5282051282052,148.32820512820513 1920,135 C 1920,135 1920,1080 1920,1080 Z" fill="#3d1053" opacity="0.075"/><path d="M 0,1080 C 0,1080 0,270 0,270 C 123.4897435897436,254.2923076923077 246.9794871794872,238.58461538461538 346,231 C 445.0205128205128,223.41538461538462 519.5717948717949,223.95384615384614 615,232 C 710.4282051282051,240.04615384615386 826.7333333333333,255.6 938,250 C 1049.2666666666667,244.4 1155.494871794872,217.64615384615385 1261,220 C 1366.505128205128,222.35384615384615 1471.2871794871794,253.81538461538463 1581,267 C 1690.7128205128206,280.18461538461537 1805.3564102564103,275.0923076923077 1920,270 C 1920,270 1920,1080 1920,1080 Z" fill="#3d1053" opacity="0.15"/><path d="M 0,1080 C 0,1080 0,405 0,405 C 108.58717948717944,438.06410256410254 217.17435897435888,471.12820512820514 341,452 C 464.8256410256411,432.87179487179486 603.8897435897437,361.55128205128204 695,359 C 786.1102564102563,356.44871794871796 829.2666666666665,422.6666666666667 916,433 C 1002.7333333333335,443.3333333333333 1133.0435897435898,397.78205128205127 1240,385 C 1346.9564102564102,372.21794871794873 1430.5589743589742,392.20512820512823 1540,401 C 1649.4410256410258,409.79487179487177 1784.7205128205128,407.3974358974359 1920,405 C 1920,405 1920,1080 1920,1080 Z" fill="#3d1053" opacity="0.22499999999999998"/><path d="M 0,1080 C 0,1080 0,540 0,540 C 89.1076923076923,526.9948717948719 178.2153846153846,513.9897435897436 290,515 C 401.7846153846154,516.0102564102564 536.2461538461539,531.0358974358974 662,526 C 787.7538461538461,520.9641025641026 904.8,495.8666666666667 1008,505 C 1111.2,514.1333333333333 1200.553846153846,557.4974358974358 1306,578 C 1411.446153846154,598.5025641025642 1532.9846153846154,596.1435897435898 1638,586 C 1743.0153846153846,575.8564102564102 1831.5076923076922,557.928205128205 1920,540 C 1920,540 1920,1080 1920,1080 Z" fill="#3d1053" opacity="0.3"/><path d="M 0,1080 C 0,1080 0,675 0,675 C 109.96666666666667,640.5820512820512 219.93333333333334,606.1641025641026 331,626 C 442.06666666666666,645.8358974358974 554.2333333333333,719.9256410256411 646,719 C 737.7666666666667,718.0743589743589 809.1333333333332,642.1333333333333 909,633 C 1008.8666666666668,623.8666666666667 1137.2333333333333,681.5410256410256 1259,705 C 1380.7666666666667,728.4589743589744 1495.9333333333332,717.7025641025641 1605,707 C 1714.0666666666668,696.2974358974359 1817.0333333333333,685.648717948718 1920,675 C 1920,675 1920,1080 1920,1080 Z" fill="#3d1053" opacity="0.375"/><path d="M 0,1080 C 0,1080 0,810 0,810 C 83.0025641025641,813.6794871794872 166.0051282051282,817.3589743589744 286,823 C 405.9948717948718,828.6410256410256 562.9820512820513,836.2435897435898 687,837 C 811.0179487179487,837.7564102564102 902.0666666666666,831.6666666666666 992,819 C 1081.9333333333334,806.3333333333334 1170.7512820512823,787.0897435897435 1268,787 C 1365.2487179487177,786.9102564102565 1470.9282051282053,805.974358974359 1581,813 C 1691.0717948717947,820.025641025641 1805.5358974358974,815.0128205128206 1920,810 C 1920,810 1920,1080 1920,1080 Z" fill="#3d1053" opacity="0.44999999999999996"/><path d="M 0,1080 C 0,1080 0,945 0,945 C 78.16923076923078,933.3179487179486 156.33846153846156,921.6358974358974 281,926 C 405.66153846153844,930.3641025641026 576.8153846153847,950.7743589743592 687,947 C 797.1846153846153,943.2256410256408 846.4,915.2666666666667 920,914 C 993.6,912.7333333333333 1091.5846153846155,938.1589743589744 1225,944 C 1358.4153846153845,949.8410256410256 1527.2615384615385,936.097435897436 1649,933 C 1770.7384615384615,929.902564102564 1845.3692307692309,937.4512820512821 1920,945 C 1920,945 1920,1080 1920,1080 Z" fill="#3d1053" opacity="0.525"/></svg>