<svg id="visual" viewBox="0 0 900 600" width="900" height="600" xmlns="http://www.w3.org/2000/svg" xmlns:xlink="http://www.w3.org/1999/xlink" version="1.1"><rect x="0" y="0" width="900" height="600" fill="#efeae1"></rect><defs><linearGradient id="grad1_0" x1="33.3%" y1="0%" x2="100%" y2="100%"><stop offset="20%" stop-color="#efeae1" stop-opacity="1"></stop><stop offset="80%" stop-color="#efeae1" stop-opacity="1"></stop></linearGradient></defs><defs><linearGradient id="grad2_0" x1="0%" y1="0%" x2="66.7%" y2="100%"><stop offset="20%" stop-color="#efeae1" stop-opacity="1"></stop><stop offset="80%" stop-color="#efeae1" stop-opacity="1"></stop></linearGradient></defs><g transform="translate(900, 0)"><path d="M0 486.7C-36.1 435.3 -72.1 383.9 -122.1 375.7C-172 367.5 -235.8 402.5 -286.1 393.8C-336.4 385 -373.1 332.4 -385.9 280.4C-398.7 228.3 -387.6 176.7 -400.4 130.1C-413.2 83.5 -450 41.7 -486.7 0L0 0Z" fill="#9ea2c2"></path></g><g transform="translate(0, 600)"><path d="M0 -486.7C48.2 -475.4 96.4 -464 147.1 -452.7C197.7 -441.4 250.8 -430 286.1 -393.8C321.4 -357.5 338.9 -296.4 334.9 -243.3C330.9 -190.3 305.4 -145.5 327.2 -106.3C348.9 -67.1 417.8 -33.6 486.7 0L0 0Z" fill="#9ea2c2"></path></g></svg>